<svg width="15" height="13" viewBox="0 0 15 13" fill="none" xmlns="http://www.w3.org/2000/svg">
<path d="M5.0625 7.25H3.9375C3.73031 7.25 3.5625 7.41781 3.5625 7.625V12.125C3.5625 12.3322 3.73031 12.5 3.9375 12.5H5.0625C5.26969 12.5 5.4375 12.3322 5.4375 12.125V7.625C5.4375 7.41781 5.26969 7.25 5.0625 7.25ZM2.0625 9.5H0.9375C0.730312 9.5 0.5625 9.66781 0.5625 9.875V12.125C0.5625 12.3322 0.730312 12.5 0.9375 12.5H2.0625C2.26969 12.5 2.4375 12.3322 2.4375 12.125V9.875C2.4375 9.66781 2.26969 9.5 2.0625 9.5ZM8.0625 5H6.9375C6.73031 5 6.5625 5.16781 6.5625 5.375V12.125C6.5625 12.3322 6.73031 12.5 6.9375 12.5H8.0625C8.26969 12.5 8.4375 12.3322 8.4375 12.125V5.375C8.4375 5.16781 8.26969 5 8.0625 5ZM11.0625 2.75H9.9375C9.73031 2.75 9.5625 2.91781 9.5625 3.125V12.125C9.5625 12.3322 9.73031 12.5 9.9375 12.5H11.0625C11.2697 12.5 11.4375 12.3322 11.4375 12.125V3.125C11.4375 2.91781 11.2697 2.75 11.0625 2.75ZM14.0625 0.5H12.9375C12.7303 0.5 12.5625 0.667812 12.5625 0.875V12.125C12.5625 12.3322 12.7303 12.5 12.9375 12.5H14.0625C14.2697 12.5 14.4375 12.3322 14.4375 12.125V0.875C14.4375 0.667812 14.2697 0.5 14.0625 0.5Z" fill="white"/>
</svg>
