<svg width="15" height="11" viewBox="0 0 15 11" fill="none" xmlns="http://www.w3.org/2000/svg">
<path d="M14.8807 3.13C10.7283 -0.710703 4.27009 -0.709297 0.119307 3.13C-0.0367863 3.27437 -0.0398332 3.51883 0.111104 3.66859L0.913604 4.46477C1.05751 4.60773 1.28907 4.61078 1.4386 4.47367C4.8586 1.34055 10.1409 1.33984 13.5617 4.47367C13.7112 4.61078 13.9427 4.6075 14.0867 4.46477L14.8892 3.66859C15.0399 3.51883 15.0368 3.27437 14.8807 3.13ZM7.50001 7.75C6.67149 7.75 6.00001 8.42148 6.00001 9.25C6.00001 10.0785 6.67149 10.75 7.50001 10.75C8.32853 10.75 9.00001 10.0785 9.00001 9.25C9.00001 8.42148 8.32853 7.75 7.50001 7.75ZM12.2501 5.79086C9.54868 3.40188 5.44829 3.40445 2.74993 5.79086C2.58821 5.93383 2.58306 6.18203 2.73657 6.33344L3.54376 7.13008C3.68439 7.26883 3.91079 7.2782 4.06056 7.14883C6.02814 5.44797 8.97634 5.45172 10.9392 7.14883C11.089 7.2782 11.3154 7.26906 11.456 7.13008L12.2632 6.33344C12.417 6.18203 12.4116 5.93359 12.2501 5.79086Z" fill="white"/>
</svg>
